<svg width="276px" height="84px" viewBox="0 0 276 84" version="1.1" xmlns="http://www.w3.org/2000/svg" xmlns:xlink="http://www.w3.org/1999/xlink">
    <g id="Page-1" stroke="none" stroke-width="1" fill="none" fill-rule="evenodd">
        <g id="R-1" transform="translate(-240.000000, -198.000000)" fill="#FFFFFF">
            <path d="M240,198 L306.96,198 C332.28,198 340.68,200.64 345.96,205.92 C350.52,210.48 352.44,216 352.44,223.08 C352.44,230.16 350.52,235.68 346.2,240 C340.92,245.28 332.28,249 306.96,249 L305.76,249 L361.92,281.64 L361.92,282 L355.92,282 L299.76,249 L243.48,249 L243.48,282 L240,282 L240,198 Z M243.48,201.36 L243.48,245.64 L306.72,245.64 C330,245.64 338.88,242.52 343.8,237.6 C347.4,234 348.84,229.08 348.84,223.08 C348.84,217.08 347.4,212.16 343.56,208.32 C338.64,203.4 330,201.36 306.72,201.36 L243.48,201.36 Z M451.927058,237.84 L451.927058,241.32 L384.367058,241.32 L384.367058,237.84 L451.927058,237.84 Z M473.774117,222.96 L473.774117,219.24 L511.334117,198 L515.654117,198 L515.654117,282 L512.174117,282 L512.174117,201.48 L473.774117,222.96 Z" id="R-1"></path>
        </g>
    </g>
</svg>
